<?xml version="1.0" encoding="UTF-8"?>
<svg width="40px" height="40px" viewBox="0 0 40 40" version="1.1" xmlns="http://www.w3.org/2000/svg" xmlns:xlink="http://www.w3.org/1999/xlink">
    <!-- Generator: Sketch 52.5 (67469) - http://www.bohemiancoding.com/sketch -->
    <title>成功</title>
    <desc>Created with Sketch.</desc>
    <g id="Page-1" stroke="none" stroke-width="1" fill="none" fill-rule="evenodd">
        <g id="借贷人修改密码成功" transform="translate(-940.000000, -232.000000)">
            <rect fill="#F5F5F5" x="0" y="0" width="1920" height="521"></rect>
            <rect id="个人信息" fill="#FFFFFF" x="510" y="62" width="900" height="394"></rect>
            <g id="成功" transform="translate(940.000000, 232.000000)" fill="#52C41B" fill-rule="nonzero">
                <path d="M20.0749526,0.0924311675 C9.08685712,0.0924311675 0.179350947,8.99993734 0.179350947,19.9880329 C0.179350947,30.9761284 9.08685712,39.8836346 20.0749526,39.8836346 C31.0630482,39.8836346 39.9705543,30.9761284 39.9705543,19.9880329 C39.9705543,8.99993734 31.0630482,0.0924311675 20.0749526,0.0924311675 Z M32.0579645,14.4248502 L18.2910712,28.4899958 C18.2441485,28.5604026 18.1919112,28.6276298 18.130362,28.6899511 C17.5907733,29.2379887 16.7160482,29.2379887 16.1760961,28.6899511 L9.33782334,21.7464316 C8.79864343,21.1983486 8.79864343,20.3102235 9.33782334,19.7629582 C9.87736662,19.2148752 10.7520917,19.2148752 11.2916804,19.7629582 L17.1325839,25.6929831 L30.1036986,12.4406046 C30.6436961,11.8925671 31.5180124,11.8925671 32.0579645,12.4406046 C32.5971444,12.9886421 32.5971444,13.8767218 32.0579645,14.4248502 Z" id="Shape"></path>
            </g>
        </g>
    </g>
</svg>